<svg t="1687094189825" class="icon" viewBox="0 0 1691 1024" version="1.1" xmlns="http://www.w3.org/2000/svg" p-id="1161" width="200" height="200"><path d="M0 354.742857c0-95.085714 84.114286-69.485714 142.628571-40.228571 80.457143 40.228571 131.657143 98.742857 215.771429 25.6 128-113.371429 263.314286-223.085714 416.914286-292.571429 164.571429-76.8 362.057143-51.2 522.971428 25.6 186.514286 91.428571 285.257143 245.028571 376.685715 424.228572 21.942857 40.228571 10.971429 80.457143-36.571429 102.4-40.228571 18.285714-98.742857 29.257143-138.971429 47.542857-25.6 10.971429-36.571429 47.542857 14.628572 51.2 40.228571 3.657143 3.657143 43.885714-10.971429 58.514285-43.885714 51.2-43.885714-7.314286-54.857143-21.942857-25.6-14.628571-84.114286-3.657143-186.514285 138.971429-40.228571 54.857143-182.857143 149.942857-292.571429 149.942857-208.457143-3.657143-402.285714-190.171429-482.742857-292.571429-40.228571-47.542857-80.457143-95.085714-124.342857-135.314285-58.514286-54.857143-124.342857-47.542857-197.485714-21.942857-25.6 7.314286-164.571429 84.114286-164.571429 0v-219.428572z" fill="#18a058" p-id="1162"></path></svg>